<mxfile host="app.diagrams.net" modified="2020-11-30T03:40:58.536Z" agent="5.0 (Windows NT 10.0; Win64; x64) AppleWebKit/537.36 (KHTML, like Gecko) Chrome/85.0.4183.83 Safari/537.36" etag="MmALAbRmvADeIWjTt0LB" version="13.10.4" type="github">
  <diagram id="C5RBs43oDa-KdzZeNtuy" name="Page-1">
    <mxGraphModel dx="1051" dy="590" grid="1" gridSize="10" guides="1" tooltips="1" connect="1" arrows="1" fold="1" page="1" pageScale="1" pageWidth="827" pageHeight="1169" math="0" shadow="0">
      <root>
        <mxCell id="WIyWlLk6GJQsqaUBKTNV-0" />
        <mxCell id="WIyWlLk6GJQsqaUBKTNV-1" parent="WIyWlLk6GJQsqaUBKTNV-0" />
        <mxCell id="r_-4gywiwVxizXc_r0d6-4" style="edgeStyle=orthogonalEdgeStyle;rounded=0;orthogonalLoop=1;jettySize=auto;html=1;" edge="1" parent="WIyWlLk6GJQsqaUBKTNV-1" source="r_-4gywiwVxizXc_r0d6-1" target="r_-4gywiwVxizXc_r0d6-2">
          <mxGeometry relative="1" as="geometry" />
        </mxCell>
        <mxCell id="r_-4gywiwVxizXc_r0d6-5" value="生成Action" style="edgeLabel;html=1;align=center;verticalAlign=middle;resizable=0;points=[];" vertex="1" connectable="0" parent="r_-4gywiwVxizXc_r0d6-4">
          <mxGeometry x="-0.0923" relative="1" as="geometry">
            <mxPoint as="offset" />
          </mxGeometry>
        </mxCell>
        <mxCell id="r_-4gywiwVxizXc_r0d6-1" value="解析配置文件" style="rounded=1;whiteSpace=wrap;html=1;" vertex="1" parent="WIyWlLk6GJQsqaUBKTNV-1">
          <mxGeometry x="70" y="150" width="120" height="60" as="geometry" />
        </mxCell>
        <mxCell id="r_-4gywiwVxizXc_r0d6-11" style="edgeStyle=orthogonalEdgeStyle;rounded=0;orthogonalLoop=1;jettySize=auto;html=1;" edge="1" parent="WIyWlLk6GJQsqaUBKTNV-1" source="r_-4gywiwVxizXc_r0d6-2" target="r_-4gywiwVxizXc_r0d6-10">
          <mxGeometry relative="1" as="geometry" />
        </mxCell>
        <mxCell id="r_-4gywiwVxizXc_r0d6-2" value="执行Action" style="rounded=1;whiteSpace=wrap;html=1;" vertex="1" parent="WIyWlLk6GJQsqaUBKTNV-1">
          <mxGeometry x="70" y="470" width="120" height="60" as="geometry" />
        </mxCell>
        <mxCell id="r_-4gywiwVxizXc_r0d6-6" value="early-init" style="rounded=1;whiteSpace=wrap;html=1;" vertex="1" parent="WIyWlLk6GJQsqaUBKTNV-1">
          <mxGeometry x="270" y="430" width="120" height="60" as="geometry" />
        </mxCell>
        <mxCell id="r_-4gywiwVxizXc_r0d6-7" value="init" style="rounded=1;whiteSpace=wrap;html=1;" vertex="1" parent="WIyWlLk6GJQsqaUBKTNV-1">
          <mxGeometry x="270" y="550" width="120" height="50" as="geometry" />
        </mxCell>
        <mxCell id="r_-4gywiwVxizXc_r0d6-8" value="early-boot" style="rounded=1;whiteSpace=wrap;html=1;" vertex="1" parent="WIyWlLk6GJQsqaUBKTNV-1">
          <mxGeometry x="260" y="1110" width="120" height="60" as="geometry" />
        </mxCell>
        <mxCell id="r_-4gywiwVxizXc_r0d6-9" value="boot" style="rounded=1;whiteSpace=wrap;html=1;" vertex="1" parent="WIyWlLk6GJQsqaUBKTNV-1">
          <mxGeometry x="260" y="1210" width="120" height="60" as="geometry" />
        </mxCell>
        <mxCell id="r_-4gywiwVxizXc_r0d6-15" style="edgeStyle=orthogonalEdgeStyle;rounded=0;orthogonalLoop=1;jettySize=auto;html=1;entryX=0.5;entryY=0;entryDx=0;entryDy=0;" edge="1" parent="WIyWlLk6GJQsqaUBKTNV-1" source="r_-4gywiwVxizXc_r0d6-10" target="r_-4gywiwVxizXc_r0d6-14">
          <mxGeometry relative="1" as="geometry" />
        </mxCell>
        <mxCell id="r_-4gywiwVxizXc_r0d6-10" value="属性服务" style="rounded=1;whiteSpace=wrap;html=1;" vertex="1" parent="WIyWlLk6GJQsqaUBKTNV-1">
          <mxGeometry x="70" y="850" width="120" height="60" as="geometry" />
        </mxCell>
        <mxCell id="r_-4gywiwVxizXc_r0d6-12" value="初始化属性相关资源" style="rounded=1;whiteSpace=wrap;html=1;" vertex="1" parent="WIyWlLk6GJQsqaUBKTNV-1">
          <mxGeometry x="260" y="795" width="120" height="60" as="geometry" />
        </mxCell>
        <mxCell id="r_-4gywiwVxizXc_r0d6-13" value="创建属性服务" style="rounded=1;whiteSpace=wrap;html=1;" vertex="1" parent="WIyWlLk6GJQsqaUBKTNV-1">
          <mxGeometry x="260" y="905" width="120" height="60" as="geometry" />
        </mxCell>
        <mxCell id="r_-4gywiwVxizXc_r0d6-14" value="执行Action" style="rounded=1;whiteSpace=wrap;html=1;" vertex="1" parent="WIyWlLk6GJQsqaUBKTNV-1">
          <mxGeometry x="70" y="1140" width="120" height="60" as="geometry" />
        </mxCell>
        <mxCell id="r_-4gywiwVxizXc_r0d6-16" value="init.rc" style="rounded=1;whiteSpace=wrap;html=1;" vertex="1" parent="WIyWlLk6GJQsqaUBKTNV-1">
          <mxGeometry x="280" y="100" width="120" height="60" as="geometry" />
        </mxCell>
        <mxCell id="r_-4gywiwVxizXc_r0d6-17" value="init.bravo.rc" style="rounded=1;whiteSpace=wrap;html=1;" vertex="1" parent="WIyWlLk6GJQsqaUBKTNV-1">
          <mxGeometry x="280" y="200" width="120" height="60" as="geometry" />
        </mxCell>
      </root>
    </mxGraphModel>
  </diagram>
</mxfile>
